<svg xmlns="http://www.w3.org/2000/svg" width="43" height="43" viewBox="0 0 43 43">
  <g id="Grupo_12828" data-name="Grupo 12828" transform="translate(4792 -1042)">
    <g id="Elipse_17" data-name="Elipse 17" transform="translate(-4785 1051)" fill="#fff" stroke="#707070" stroke-width="1">
      <ellipse cx="15" cy="14" rx="15" ry="14" stroke="none"/>
      <ellipse cx="15" cy="14" rx="14.5" ry="13.5" fill="none"/>
    </g>
    <path id="Forma_2" data-name="Forma 2" d="M1529.5,31A21.5,21.5,0,1,0,1551,52.5,21.524,21.524,0,0,0,1529.5,31Zm10.336,23.154h-8.683v9.1a1.654,1.654,0,0,1-3.308,0v-9.1h-8.683a1.654,1.654,0,0,1,0-3.308h8.683V42.577a1.654,1.654,0,1,1,3.308,0v8.269h8.683a1.654,1.654,0,0,1,0,3.308Z" transform="translate(-6300 1011)" fill="#21457F"/>
  </g>
</svg>
