<svg width="10" height="10" viewBox="0 0 10 10" fill="none" xmlns="http://www.w3.org/2000/svg">
<path d="M1.83035 1.1125C2.73109 0.391811 3.85044 -0.000569332 5.00401 6.20037e-07C6.36382 6.20037e-07 7.63391 0.523885 8.58346 1.47522C9.50109 2.39576 10.004 3.61116 9.99998 4.89665C9.99994 5.83913 9.72325 6.76087 9.20422 7.54755L9.19998 7.55357C9.19373 7.56272 9.18725 7.57187 9.18078 7.5808C9.17431 7.58973 9.16627 7.60134 9.16449 7.60424L9.15958 7.61317C9.13435 7.65781 9.11493 7.71228 9.13212 7.76719L9.54328 9.25513C9.55973 9.31046 9.56874 9.36774 9.57007 9.42545C9.57036 9.57726 9.51045 9.723 9.40345 9.8307C9.29646 9.93841 9.15112 9.99929 8.99931 10C8.91909 9.99735 8.84003 9.98003 8.76605 9.94888L7.25958 9.40513L7.24061 9.39777C7.19963 9.38056 7.15559 9.37183 7.11114 9.3721C7.07016 9.3722 7.02955 9.37976 6.99128 9.39442C6.95512 9.40848 6.62677 9.53415 6.28034 9.63103C5.9924 9.71138 5.39329 9.83192 4.92387 9.83192C3.5924 9.83192 2.3491 9.31629 1.42321 8.37969C0.505357 7.45022 0 6.21473 0 4.89933C-0.000119209 4.56168 0.0356474 4.22496 0.106696 3.89487C0.3375 2.8096 0.949551 1.82121 1.83035 1.1125ZM7.14284 5.71429C7.28411 5.71429 7.42221 5.67239 7.53967 5.59391C7.65714 5.51542 7.74869 5.40386 7.80275 5.27335C7.85682 5.14283 7.87096 4.99921 7.8434 4.86065C7.81584 4.72209 7.74781 4.59482 7.64792 4.49492C7.54802 4.39503 7.42075 4.327 7.28219 4.29944C7.14363 4.27188 7.00001 4.28602 6.8695 4.34009C6.73898 4.39415 6.62742 4.4857 6.54893 4.60316C6.47045 4.72063 6.42856 4.85873 6.42856 5C6.42856 5.18944 6.50381 5.37112 6.63777 5.50508C6.77172 5.63903 6.9534 5.71429 7.14284 5.71429ZM4.99999 5.71429C5.14126 5.71429 5.27936 5.67239 5.39682 5.59391C5.51429 5.51542 5.60584 5.40386 5.6599 5.27335C5.71396 5.14283 5.72811 4.99921 5.70055 4.86065C5.67299 4.72209 5.60496 4.59482 5.50506 4.49492C5.40517 4.39503 5.2779 4.327 5.13934 4.29944C5.00078 4.27188 4.85716 4.28602 4.72664 4.34009C4.59613 4.39415 4.48457 4.4857 4.40608 4.60316C4.3276 4.72063 4.2857 4.85873 4.2857 5C4.2857 5.18944 4.36096 5.37112 4.49491 5.50508C4.62887 5.63903 4.81055 5.71429 4.99999 5.71429ZM2.85714 5.71429C2.99841 5.71429 3.13651 5.67239 3.25397 5.59391C3.37143 5.51542 3.46299 5.40386 3.51705 5.27335C3.57111 5.14283 3.58526 4.99921 3.5577 4.86065C3.53013 4.72209 3.46211 4.59482 3.36221 4.49492C3.26232 4.39503 3.13504 4.327 2.99649 4.29944C2.85793 4.27188 2.71431 4.28602 2.58379 4.34009C2.45327 4.39415 2.34172 4.4857 2.26323 4.60316C2.18474 4.72063 2.14285 4.85873 2.14285 5C2.14285 5.18944 2.21811 5.37112 2.35206 5.50508C2.48602 5.63903 2.6677 5.71429 2.85714 5.71429Z" fill="#270FD6"/>
</svg>
