<svg width="12" height="12" viewBox="0 0 12 12" fill="none" xmlns="http://www.w3.org/2000/svg">
<path d="M2.19642 1.335C3.2773 0.470174 4.62053 -0.000683199 6.00481 7.44044e-07C7.63659 7.44044e-07 9.16069 0.628662 10.3002 1.77027C11.4013 2.87491 12.0048 4.33339 12 5.87598C11.9999 7.00696 11.6679 8.11304 11.0451 9.05705L11.04 9.06429C11.0325 9.07527 11.0247 9.08625 11.0169 9.09696C11.0092 9.10768 10.9995 9.12161 10.9974 9.12509L10.9915 9.1358C10.9612 9.18938 10.9379 9.25473 10.9585 9.32063L11.4519 11.1062C11.4717 11.1726 11.4825 11.2413 11.4841 11.3105C11.4844 11.4927 11.4125 11.6676 11.2841 11.7968C11.1558 11.9261 10.9813 11.9991 10.7992 12C10.7029 11.9968 10.608 11.976 10.5193 11.9387L8.7115 11.2862L8.68873 11.2773C8.63955 11.2567 8.58671 11.2462 8.53337 11.2465C8.4842 11.2466 8.43546 11.2557 8.38953 11.2733C8.34614 11.2902 7.95212 11.441 7.53641 11.5572C7.19088 11.6537 6.47195 11.7983 5.90865 11.7983C4.31088 11.7983 2.81892 11.1796 1.70785 10.0556C0.606427 8.94027 0 7.45768 0 5.8792C-0.000143051 5.47401 0.0427761 5.06995 0.128036 4.67384C0.404999 3.37152 1.13946 2.18545 2.19642 1.335ZM8.57141 6.85714C8.74093 6.85714 8.90665 6.80687 9.04761 6.71269C9.18857 6.6185 9.29843 6.48464 9.3633 6.32801C9.42818 6.17139 9.44515 5.99905 9.41208 5.83278C9.37901 5.66651 9.29737 5.51378 9.1775 5.39391C9.05762 5.27404 8.9049 5.1924 8.73863 5.15933C8.57236 5.12625 8.40002 5.14323 8.24339 5.2081C8.08677 5.27298 7.95291 5.38284 7.85872 5.5238C7.76454 5.66475 7.71427 5.83047 7.71427 6C7.71427 6.22733 7.80457 6.44535 7.96532 6.60609C8.12606 6.76684 8.34408 6.85714 8.57141 6.85714ZM5.99999 6.85714C6.16951 6.85714 6.33523 6.80687 6.47619 6.71269C6.61714 6.6185 6.72701 6.48464 6.79188 6.32801C6.85676 6.17139 6.87373 5.99905 6.84066 5.83278C6.80758 5.66651 6.72595 5.51378 6.60608 5.39391C6.4862 5.27404 6.33347 5.1924 6.16721 5.15933C6.00094 5.12625 5.82859 5.14323 5.67197 5.2081C5.51535 5.27298 5.38148 5.38284 5.2873 5.5238C5.19312 5.66475 5.14285 5.83047 5.14285 6C5.14285 6.22733 5.23315 6.44535 5.3939 6.60609C5.55464 6.76684 5.77266 6.85714 5.99999 6.85714ZM3.42856 6.85714C3.59809 6.85714 3.76381 6.80687 3.90477 6.71269C4.04572 6.6185 4.15558 6.48464 4.22046 6.32801C4.28533 6.17139 4.30231 5.99905 4.26923 5.83278C4.23616 5.66651 4.15453 5.51378 4.03465 5.39391C3.91478 5.27404 3.76205 5.1924 3.59578 5.15933C3.42951 5.12625 3.25717 5.14323 3.10055 5.2081C2.94393 5.27298 2.81006 5.38284 2.71588 5.5238C2.62169 5.66475 2.57142 5.83047 2.57142 6C2.57142 6.22733 2.66173 6.44535 2.82247 6.60609C2.98322 6.76684 3.20123 6.85714 3.42856 6.85714Z" fill="#21457F"/>
</svg>
