<svg xmlns="http://www.w3.org/2000/svg" width="40.737" height="40.752" viewBox="0 0 40.737 40.752">
  <path id="Forma_1_copiar" data-name="Forma 1 copiar" d="M643.323,3210.492a20.377,20.377,0,0,0-34.747,15.741,20.117,20.117,0,0,0,5.918,13.088,20.385,20.385,0,0,0,28.829-28.829Zm-6.376,22.453a1.566,1.566,0,0,1-2.217,0l-5.821-5.82-6.1,6.1a1.567,1.567,0,0,1-2.217-2.216l6.1-6.1-5.821-5.82a1.568,1.568,0,0,1,2.217-2.218l5.822,5.822,5.544-5.543a1.567,1.567,0,0,1,2.217,2.217l-5.543,5.542,5.821,5.823A1.565,1.565,0,0,1,636.947,3232.945Z" transform="translate(-608.546 -3204.531)" fill="#21457F"/>
</svg>
