<svg id="Componente_30" data-name="Componente 30" xmlns="http://www.w3.org/2000/svg" width="6" height="30" viewBox="0 0 6 30">
  <rect id="Retângulo_2154" data-name="Retângulo 2154" width="2" height="2" fill="#b9b9b9"/>
  <rect id="Retângulo_2168" data-name="Retângulo 2168" width="2" height="2" transform="translate(0 16)" fill="#b9b9b9"/>
  <rect id="Retângulo_2157" data-name="Retângulo 2157" width="2" height="2" transform="translate(0 4)" fill="#b9b9b9"/>
  <rect id="Retângulo_2167" data-name="Retângulo 2167" width="2" height="2" transform="translate(0 20)" fill="#b9b9b9"/>
  <rect id="Retângulo_2159" data-name="Retângulo 2159" width="2" height="2" transform="translate(0 8)" fill="#b9b9b9"/>
  <rect id="Retângulo_2164" data-name="Retângulo 2164" width="2" height="2" transform="translate(0 24)" fill="#b9b9b9"/>
  <rect id="Retângulo_2161" data-name="Retângulo 2161" width="2" height="2" transform="translate(0 12)" fill="#b9b9b9"/>
  <rect id="Retângulo_2163" data-name="Retângulo 2163" width="2" height="2" transform="translate(0 28)" fill="#b9b9b9"/>
  <rect id="Retângulo_2155" data-name="Retângulo 2155" width="2" height="2" transform="translate(4)" fill="#b9b9b9"/>
  <rect id="Retângulo_2169" data-name="Retângulo 2169" width="2" height="2" transform="translate(4 16)" fill="#b9b9b9"/>
  <rect id="Retângulo_2156" data-name="Retângulo 2156" width="2" height="2" transform="translate(4 4)" fill="#b9b9b9"/>
  <rect id="Retângulo_2166" data-name="Retângulo 2166" width="2" height="2" transform="translate(4 20)" fill="#b9b9b9"/>
  <rect id="Retângulo_2158" data-name="Retângulo 2158" width="2" height="2" transform="translate(4 8)" fill="#b9b9b9"/>
  <rect id="Retângulo_2165" data-name="Retângulo 2165" width="2" height="2" transform="translate(4 24)" fill="#b9b9b9"/>
  <rect id="Retângulo_2160" data-name="Retângulo 2160" width="2" height="2" transform="translate(4 12)" fill="#b9b9b9"/>
  <rect id="Retângulo_2162" data-name="Retângulo 2162" width="2" height="2" transform="translate(4 28)" fill="#b9b9b9"/>
</svg>
