<svg width="12" height="12" viewBox="0 0 12 12" fill="none" xmlns="http://www.w3.org/2000/svg">
<path d="M3 8.4V9C3 9.17 3.0574 9.3124 3.1722 9.4272C3.2874 9.5424 3.43 9.6 3.6 9.6C3.77 9.6 3.9126 9.5424 4.0278 9.4272C4.1426 9.3124 4.2 9.17 4.2 9V8.4H4.8C4.97 8.4 5.1126 8.3424 5.2278 8.2272C5.3426 8.1124 5.4 7.97 5.4 7.8C5.4 7.63 5.3426 7.4874 5.2278 7.3722C5.1126 7.2574 4.97 7.2 4.8 7.2H4.2V6.6C4.2 6.43 4.1426 6.2874 4.0278 6.1722C3.9126 6.0574 3.77 6 3.6 6C3.43 6 3.2874 6.0574 3.1722 6.1722C3.0574 6.2874 3 6.43 3 6.6V7.2H2.4C2.23 7.2 2.0874 7.2574 1.9722 7.3722C1.8574 7.4874 1.8 7.63 1.8 7.8C1.8 7.97 1.8574 8.1124 1.9722 8.2272C2.0874 8.3424 2.23 8.4 2.4 8.4H3ZM9.75 7.5C9.88 7.5 9.9876 7.4574 10.0728 7.3722C10.1576 7.2874 10.2 7.18 10.2 7.05C10.2 6.92 10.1576 6.8124 10.0728 6.7272C9.9876 6.6424 9.88 6.6 9.75 6.6H7.05C6.92 6.6 6.8126 6.6424 6.7278 6.7272C6.6426 6.8124 6.6 6.92 6.6 7.05C6.6 7.18 6.6426 7.2874 6.7278 7.3722C6.8126 7.4574 6.92 7.5 7.05 7.5H9.75ZM8.55 9.3C8.68 9.3 8.7876 9.2576 8.8728 9.1728C8.9576 9.0876 9 8.98 9 8.85C9 8.72 8.9576 8.6124 8.8728 8.5272C8.7876 8.4424 8.68 8.4 8.55 8.4H7.05C6.92 8.4 6.8126 8.4424 6.7278 8.5272C6.6426 8.6124 6.6 8.72 6.6 8.85C6.6 8.98 6.6426 9.0876 6.7278 9.1728C6.8126 9.2576 6.92 9.3 7.05 9.3H8.55ZM7.8 3H10.8C11.13 3 11.4126 3.1174 11.6478 3.3522C11.8826 3.5874 12 3.87 12 4.2V10.8C12 11.13 11.8826 11.4126 11.6478 11.6478C11.4126 11.8826 11.13 12 10.8 12H1.2C0.87 12 0.5876 11.8826 0.3528 11.6478C0.1176 11.4126 0 11.13 0 10.8V4.2C0 3.87 0.1176 3.5874 0.3528 3.3522C0.5876 3.1174 0.87 3 1.2 3H4.2V1.2C4.2 0.87 4.3176 0.5874 4.5528 0.3522C4.7876 0.1174 5.07 0 5.4 0H6.6C6.93 0 7.2126 0.1174 7.4478 0.3522C7.6826 0.5874 7.8 0.87 7.8 1.2V3ZM5.4 4.2H6.6V1.2H5.4V4.2Z" fill="#21457F"/>
</svg>
