<svg width="63" height="63" viewBox="0 0 63 63" fill="none" xmlns="http://www.w3.org/2000/svg">
<circle cx="31.5" cy="31.5" r="31.5" fill="#270FD6"/>
<path fill-rule="evenodd" clip-rule="evenodd" d="M12 24.2C12 22.8209 12.5136 21.4982 13.4279 20.523C14.3421 19.5479 15.5821 19 16.875 19H35.1562C36.3387 18.9999 37.4808 19.4581 38.37 20.2894C39.2593 21.1207 39.8349 22.2684 39.9898 23.5188L47.5704 19.9256C47.9415 19.7492 48.348 19.6746 48.753 19.7085C49.1579 19.7423 49.5486 19.8836 49.8893 20.1195C50.2301 20.3553 50.5102 20.6783 50.7042 21.059C50.8981 21.4397 50.9998 21.8661 51 22.2994V41.7006C50.9996 42.1336 50.8979 42.5596 50.7041 42.94C50.5102 43.3204 50.2304 43.6431 49.89 43.8789C49.5496 44.1147 49.1593 44.2561 48.7547 44.2902C48.35 44.3244 47.9438 44.2502 47.5729 44.0744L39.9898 40.4812C39.8349 41.7316 39.2593 42.8793 38.37 43.7106C37.4808 44.5419 36.3387 45.0001 35.1562 45H16.875C15.5821 45 14.3421 44.4521 13.4279 43.477C12.5136 42.5018 12 41.1791 12 39.8V24.2Z" fill="white"/>
</svg>
