<svg xmlns="http://www.w3.org/2000/svg" width="106.616" height="111.176" viewBox="0 0 106.616 111.176">
  <g id="Grupo_10178" data-name="Grupo 10178" opacity="0.34">
    <path id="Caminho_23" data-name="Caminho 23" d="M240.739,78.587l-34.9,9.873v60.428l34.895,18.478L275.639,149V88.46Z" transform="translate(-195.04 -67.389)" fill="#fff"/>
    <path id="Caminho_24" data-name="Caminho 24" d="M237.351,167.366,272.257,149V88.46l-34.9-9.873" transform="translate(-191.658 -67.389)" fill="#e4e4e4"/>
    <path id="Caminho_25" data-name="Caminho 25" d="M241.785,68.474,196.087,81.4v62.606a18.976,18.976,0,0,0,10.123,16.8l35.576,18.839,35.576-18.839a18.975,18.975,0,0,0,10.123-16.8V81.4Zm32.179,78.85L241.78,164.258l-32.174-17.037V91.5l32.178-9.1,32.179,9.1Z" transform="translate(-196.087 -68.474)" fill="#a5a5a5"/>
    <path id="Caminho_26" data-name="Caminho 26" d="M237.357,68.474l-.005,0V82.4l.005,0,32.179,9.1v55.819l-32.184,16.934h0v15.389l.005,0,35.576-18.839a18.975,18.975,0,0,0,10.123-16.8V81.4Z" transform="translate(-191.658 -68.474)" fill="#696969"/>
    <path id="Caminho_27" data-name="Caminho 27" d="M250.4,109.575a11.892,11.892,0,1,0-20.593,8.091v19.517h16.465V118.567A11.84,11.84,0,0,0,250.4,109.575Z" transform="translate(-192.81 -65.337)" fill="#c1c1c1"/>
    <path id="Caminho_28" data-name="Caminho 28" d="M247.311,116.062A11.865,11.865,0,0,0,237.357,97.7h-.005v18.364h9.96Z" transform="translate(-191.658 -65.337)" fill="#3f3f3f"/>
    <path id="Caminho_29" data-name="Caminho 29" d="M229.657,123.465H273.75a5.166,5.166,0,1,1,9.991,0h15.5c.023-.4.036-.8.036-1.2A20.536,20.536,0,0,0,259.541,115H228.018a11.939,11.939,0,0,0,1.639,2.227Z" transform="translate(-192.66 -64.902)" fill="#bababa"/>
    <path id="Caminho_30" data-name="Caminho 30" d="M283.75,120.276a5.164,5.164,0,0,1-10.326,0H229.5v14.484h3.611v-7.224h5.127v7.224h7.758v-7.224h13.389a20.536,20.536,0,0,0,39.734-7.26Z" transform="translate(-192.501 -62.914)" fill="#959595"/>
  </g>
</svg>
