<svg width="17" height="17" viewBox="0 0 17 17" fill="none" xmlns="http://www.w3.org/2000/svg">
<path d="M8.5 0C3.80603 0 0 3.80603 0 8.5C0 13.194 3.80603 17 8.5 17C13.194 17 17 13.194 17 8.5C17 3.80603 13.194 0 8.5 0ZM9.10714 12.5982C9.10714 12.6817 9.03884 12.75 8.95536 12.75H8.04464C7.96116 12.75 7.89286 12.6817 7.89286 12.5982V7.4375C7.89286 7.35402 7.96116 7.28571 8.04464 7.28571H8.95536C9.03884 7.28571 9.10714 7.35402 9.10714 7.4375V12.5982ZM8.5 6.07143C8.26168 6.06656 8.03477 5.96848 7.86795 5.79821C7.70112 5.62795 7.60769 5.39908 7.60769 5.16071C7.60769 4.92235 7.70112 4.69348 7.86795 4.52321C8.03477 4.35295 8.26168 4.25486 8.5 4.25C8.73832 4.25486 8.96523 4.35295 9.13206 4.52321C9.29888 4.69348 9.39231 4.92235 9.39231 5.16071C9.39231 5.39908 9.29888 5.62795 9.13206 5.79821C8.96523 5.96848 8.73832 6.06656 8.5 6.07143Z" fill="white"/>
</svg>
