<svg width="10" height="10" viewBox="0 0 10 10" fill="none" xmlns="http://www.w3.org/2000/svg">
<path d="M2.5 7V7.5C2.5 7.64167 2.54783 7.76033 2.6435 7.856C2.7395 7.952 2.85833 8 3 8C3.14167 8 3.2605 7.952 3.3565 7.856C3.45217 7.76033 3.5 7.64167 3.5 7.5V7H4C4.14167 7 4.2605 6.952 4.3565 6.856C4.45217 6.76033 4.5 6.64167 4.5 6.5C4.5 6.35833 4.45217 6.2395 4.3565 6.1435C4.2605 6.04783 4.14167 6 4 6H3.5V5.5C3.5 5.35833 3.45217 5.2395 3.3565 5.1435C3.2605 5.04783 3.14167 5 3 5C2.85833 5 2.7395 5.04783 2.6435 5.1435C2.54783 5.2395 2.5 5.35833 2.5 5.5V6H2C1.85833 6 1.7395 6.04783 1.6435 6.1435C1.54783 6.2395 1.5 6.35833 1.5 6.5C1.5 6.64167 1.54783 6.76033 1.6435 6.856C1.7395 6.952 1.85833 7 2 7H2.5ZM8.125 6.25C8.23333 6.25 8.323 6.2145 8.394 6.1435C8.46467 6.07283 8.5 5.98333 8.5 5.875C8.5 5.76667 8.46467 5.677 8.394 5.606C8.323 5.53533 8.23333 5.5 8.125 5.5H5.875C5.76667 5.5 5.67717 5.53533 5.6065 5.606C5.5355 5.677 5.5 5.76667 5.5 5.875C5.5 5.98333 5.5355 6.07283 5.6065 6.1435C5.67717 6.2145 5.76667 6.25 5.875 6.25H8.125ZM7.125 7.75C7.23333 7.75 7.323 7.71467 7.394 7.644C7.46467 7.573 7.5 7.48333 7.5 7.375C7.5 7.26667 7.46467 7.177 7.394 7.106C7.323 7.03533 7.23333 7 7.125 7H5.875C5.76667 7 5.67717 7.03533 5.6065 7.106C5.5355 7.177 5.5 7.26667 5.5 7.375C5.5 7.48333 5.5355 7.573 5.6065 7.644C5.67717 7.71467 5.76667 7.75 5.875 7.75H7.125ZM6.5 2.5H9C9.275 2.5 9.5105 2.59783 9.7065 2.7935C9.90217 2.9895 10 3.225 10 3.5V9C10 9.275 9.90217 9.5105 9.7065 9.7065C9.5105 9.90217 9.275 10 9 10H1C0.725 10 0.489667 9.90217 0.294 9.7065C0.098 9.5105 0 9.275 0 9V3.5C0 3.225 0.098 2.9895 0.294 2.7935C0.489667 2.59783 0.725 2.5 1 2.5H3.5V1C3.5 0.725 3.598 0.4895 3.794 0.2935C3.98967 0.0978333 4.225 0 4.5 0H5.5C5.775 0 6.0105 0.0978333 6.2065 0.2935C6.40217 0.4895 6.5 0.725 6.5 1V2.5ZM4.5 3.5H5.5V1H4.5V3.5Z" fill="#270FD6"/>
</svg>
