<svg width="63" height="63" viewBox="0 0 63 63" fill="none" xmlns="http://www.w3.org/2000/svg">
<circle cx="31.5" cy="31.5" r="31.5" fill="#95E333"/>
<path d="M41.2305 28.5389H38.9227C38.9218 27.6211 38.5568 26.7411 37.9078 26.0922C37.2588 25.4432 36.3789 25.0782 35.4611 25.0772V22.7695C36.9906 22.7713 38.4571 23.3797 39.5386 24.4613C40.6202 25.5429 41.2287 27.0093 41.2305 28.5389Z" fill="white"/>
<path d="M45.8461 28.5389H43.5383C43.5359 26.3974 42.6841 24.3444 41.1699 22.8301C39.6556 21.3159 37.6026 20.4641 35.4611 20.4617V18.1539C38.2144 18.157 40.8541 19.2521 42.801 21.199C44.7479 23.1459 45.8431 25.7856 45.8461 28.5389ZM36.9992 38.3262L39.584 35.7415C39.9299 35.3954 40.3698 35.1585 40.8492 35.06C41.3285 34.9616 41.8262 35.0059 42.2806 35.1876L45.4284 36.4476C45.8924 36.6333 46.29 36.9537 46.5702 37.3675C46.8503 37.7813 47 38.2696 47 38.7693V44.4937C47.0008 44.8339 46.9322 45.1708 46.7983 45.4836C46.6644 45.7964 46.4681 46.0785 46.2214 46.3128C45.9747 46.5471 45.6827 46.7286 45.3635 46.8462C45.0442 46.9637 44.7043 47.0149 44.3645 46.9965C22.2999 45.6234 17.8435 26.935 17.0162 19.7786C16.9761 19.4287 17.0106 19.0743 17.1173 18.7387C17.224 18.4031 17.4006 18.0939 17.6353 17.8315C17.8701 17.569 18.1578 17.3592 18.4795 17.2159C18.8012 17.0726 19.1495 16.999 19.5017 17H25.1246C25.6243 17 26.1125 17.1497 26.5264 17.4298C26.9402 17.71 27.2606 18.1077 27.4462 18.5716L28.7051 21.7194C28.8868 22.1738 28.9311 22.6715 28.8327 23.1508C28.7342 23.6302 28.4973 24.0701 28.1512 24.4161L25.5665 27.0008C25.5665 27.0008 26.9996 37.0765 36.9992 38.3262Z" fill="white"/>
</svg>
