<svg width="25" height="17" viewBox="0 0 25 17" fill="none" xmlns="http://www.w3.org/2000/svg">
<path fill-rule="evenodd" clip-rule="evenodd" d="M0 3.4C0 2.49826 0.32924 1.63346 0.915291 0.995837C1.50134 0.358213 2.2962 2.35471e-08 3.125 2.35471e-08H14.8438C15.6017 -9.69816e-05 16.3339 0.299528 16.9039 0.843077C17.4739 1.38663 17.8429 2.13705 17.9422 2.9546L22.8016 0.6052C23.0394 0.489892 23.3 0.441088 23.5596 0.463225C23.8192 0.485362 24.0696 0.577738 24.288 0.731956C24.5065 0.886174 24.686 1.09734 24.8104 1.34627C24.9347 1.5952 24.9999 1.87399 25 2.1573V14.8427C24.9998 15.1258 24.9346 15.4043 24.8103 15.6531C24.6861 15.9018 24.5067 16.1128 24.2885 16.267C24.0702 16.4212 23.8201 16.5136 23.5607 16.5359C23.3013 16.5582 23.0409 16.5097 22.8031 16.3948L17.9422 14.0454C17.8429 14.863 17.4739 15.6134 16.9039 16.1569C16.3339 16.7005 15.6017 17.0001 14.8438 17H3.125C2.2962 17 1.50134 16.6418 0.915291 16.0042C0.32924 15.3665 0 14.5017 0 13.6V3.4Z" fill="white"/>
</svg>
